<?xml version="1.0" standalone="no"?>
<!DOCTYPE svg PUBLIC "-//W3C//DTD SVG 20010904//EN"
 "http://www.w3.org/TR/2001/REC-SVG-20010904/DTD/svg10.dtd">
<svg version="1.0" xmlns="http://www.w3.org/2000/svg"
 width="450.000000pt" height="450.000000pt" viewBox="0 0 450.000000 450.000000"
 preserveAspectRatio="xMidYMid meet">
<metadata>
Created by potrace 1.10, written by Peter Selinger 2001-2011
</metadata>
<g transform="translate(0.000000,450.000000) scale(0.100000,-0.100000)"
fill="#255626" stroke="none">
<path d="M518 4483 c-10 -10 -33 -33 -53 -52 -33 -32 -52 -66 -89 -156 -20
-49 -76 -268 -76 -296 0 -11 -3 -18 -8 -15 -4 2 -9 -21 -10 -51 -2 -30 -7 -66
-13 -80 -12 -32 -10 -512 2 -583 6 -30 11 -65 12 -77 1 -13 5 -23 8 -23 4 0
12 -30 19 -67 6 -37 20 -87 32 -112 l20 -45 -25 -75 c-25 -73 -44 -150 -68
-275 -14 -76 -14 -348 0 -451 16 -111 39 -208 68 -285 14 -36 34 -90 45 -120
44 -117 132 -276 220 -397 21 -29 38 -55 38 -59 0 -12 176 -210 260 -291 66
-65 82 -85 72 -95 -16 -16 -15 -86 1 -118 10 -20 10 -38 1 -90 -7 -36 -15 -82
-18 -104 -4 -21 -8 -42 -11 -46 -3 -4 -7 -39 -11 -76 -3 -38 -7 -79 -9 -91 -2
-13 -7 -97 -11 -188 -6 -152 -5 -165 10 -165 10 0 15 4 11 9 -12 20 18 393 44
551 l27 165 53 10 c59 12 234 2 290 -16 76 -24 311 -136 426 -202 123 -71 245
-147 245 -153 0 -2 -20 -12 -45 -23 -103 -45 -215 -214 -215 -323 0 -38 19
-15 30 35 24 115 97 211 204 269 58 31 66 33 166 33 98 0 109 -2 165 -31 110
-58 184 -154 207 -270 6 -30 16 -54 23 -54 18 0 -1 99 -32 167 -16 34 -12 55
69 463 6 30 11 65 12 78 l1 24 200 -3 c110 -1 229 -3 265 -4 36 0 314 -2 619
-3 l553 -2 -6 -35 c-4 -20 -24 -90 -45 -158 -21 -67 -46 -149 -55 -182 -42
-158 -85 -312 -91 -327 -5 -12 -2 -18 7 -18 15 0 30 41 73 200 15 52 33 118
41 145 7 28 25 90 39 138 14 49 27 93 30 98 14 22 32 150 22 156 -5 3 -51 7
-101 8 -113 3 -106 2 -106 20 0 8 -4 15 -10 15 -5 0 -11 17 -11 38 -2 35 -2
35 -8 -10 -4 -26 -10 -50 -14 -54 -4 -4 -40 -7 -80 -7 -39 1 -138 2 -219 2
l-148 1 -27 31 c-59 66 -129 136 -154 152 -21 14 -26 25 -26 58 0 36 4 43 41
68 39 28 206 194 206 206 0 3 5 11 10 18 6 7 29 37 51 67 21 30 44 60 49 67 6
7 10 15 10 19 0 3 8 18 19 32 28 41 81 138 99 182 5 14 18 43 28 65 10 22 30
74 45 115 15 41 32 74 37 73 7 -2 9 10 5 31 -3 18 2 58 10 87 22 81 49 225 47
256 -5 68 1 134 10 128 6 -3 10 -1 10 4 0 6 -4 11 -9 11 -4 0 -11 38 -15 85
-7 97 -46 291 -77 386 -36 111 -119 274 -200 391 -11 15 -19 30 -19 33 0 17
-206 230 -302 312 -51 43 -88 82 -88 93 0 21 -27 112 -46 157 -8 17 -14 35
-14 40 0 5 -16 46 -35 91 -20 45 -33 87 -30 92 3 6 2 10 -4 10 -7 0 -74 128
-105 200 -7 17 -26 49 -41 66 -5 7 -25 37 -44 68 -22 36 -40 56 -52 56 -16 0
-8 -16 40 -87 89 -134 200 -365 266 -558 21 -60 42 -115 46 -121 19 -24 -6
-22 -40 5 -64 50 -319 180 -416 213 -16 5 -39 13 -50 18 -67 29 -214 59 -297
62 -33 1 -38 4 -38 26 0 49 73 297 125 425 5 12 2 17 -9 17 -9 0 -16 -2 -16
-4 0 -2 -16 -48 -35 -102 -42 -118 -85 -277 -85 -315 0 -34 -12 -38 -80 -28
-30 4 -80 8 -111 8 -31 1 -59 4 -62 7 -5 5 36 90 97 199 30 54 94 144 128 180
40 43 46 55 25 55 -25 0 -187 -213 -187 -246 0 -7 -3 -14 -8 -16 -4 -1 -25
-40 -47 -85 l-40 -83 -70 -2 c-211 -6 -346 -26 -515 -74 -30 -9 -63 -20 -72
-24 -18 -10 -140 -60 -145 -60 -2 0 -3 4 -3 8 0 5 -29 38 -63 73 -35 35 -62
69 -60 74 2 6 -20 23 -48 39 -28 15 -61 37 -73 49 -25 26 -82 67 -93 67 -4 0
-33 23 -63 50 -30 28 -70 58 -87 66 -18 9 -33 20 -33 25 0 5 -6 9 -12 9 -7 0
-27 14 -45 30 -18 17 -35 30 -38 30 -3 0 -31 16 -61 35 -63 40 -127 48 -156
18z m217 -98 c200 -146 431 -323 475 -364 30 -29 73 -68 95 -88 30 -26 36 -37
25 -41 -8 -3 -72 -34 -142 -70 -112 -57 -163 -91 -324 -211 -59 -45 -231 -219
-266 -269 -17 -24 -33 -41 -36 -37 -12 12 -52 193 -72 323 -38 253 -18 632 42
797 21 56 34 59 107 18 36 -20 80 -46 96 -58z m-229 30 c-39 -103 -56 -254
-56 -503 0 -209 21 -380 64 -532 41 -147 33 -143 100 -56 130 170 370 363 594
478 75 39 142 74 147 78 22 16 225 90 300 109 371 95 933 53 1261 -94 240
-108 350 -175 486 -295 218 -193 330 -336 433 -553 90 -189 137 -361 149 -547
l5 -85 -23 95 c-12 52 -28 113 -35 135 -19 57 -79 174 -112 216 -31 39 -29 49
8 49 13 0 23 5 23 11 0 8 -15 9 -45 5 -25 -4 -45 -3 -45 2 0 30 -180 166 -256
194 -19 6 -34 15 -34 18 0 3 31 31 70 60 38 30 70 61 70 69 0 17 -35 -5 -112
-72 l-57 -50 -45 12 c-51 13 -213 16 -269 6 -34 -7 -37 -5 -37 15 0 40 -41
163 -79 234 -44 86 -140 186 -205 215 -64 30 -153 32 -226 6 -110 -40 -194
-158 -207 -289 l-6 -66 -22 52 c-73 179 -215 276 -364 248 -97 -17 -174 -63
-242 -142 -99 -115 -149 -251 -149 -404 l0 -84 -76 0 c-79 0 -200 -23 -246
-46 -40 -21 -56 -18 -145 26 -127 62 -362 150 -401 150 -31 0 -3 -24 43 -37
96 -28 242 -85 350 -138 l66 -32 -68 -34 c-89 -44 -145 -81 -214 -140 l-56
-47 -94 13 c-177 25 -189 26 -189 12 0 -9 35 -17 113 -26 162 -18 156 -13 99
-75 -69 -76 -126 -176 -163 -286 -28 -85 -32 -110 -37 -245 -8 -275 50 -481
204 -722 102 -160 285 -365 401 -450 34 -26 61 -48 59 -51 -7 -6 -199 61 -221
78 -40 29 -222 217 -291 300 -60 72 -133 178 -232 336 -57 92 -162 381 -189
521 -23 118 -23 454 -1 563 40 194 95 344 168 457 14 21 17 33 10 38 -14 9
-11 14 -59 -84 -23 -45 -44 -81 -46 -79 -9 9 -56 199 -70 283 -20 118 -20 495
-1 620 26 171 83 374 133 477 27 54 54 98 62 98 8 0 11 -6 7 -15z m2292 -809
c121 -62 233 -239 272 -433 23 -114 25 -173 9 -258 -26 -141 -93 -210 -237
-247 -41 -10 -44 -9 -73 20 -46 47 -110 68 -171 55 l-50 -10 -29 45 c-63 100
-106 248 -132 451 -5 43 16 175 36 223 34 80 104 142 197 172 44 14 133 5 178
-18z m-604 -107 c24 -17 58 -50 75 -74 42 -59 88 -176 101 -260 6 -39 16 -90
21 -115 18 -81 12 -231 -13 -307 -53 -162 -219 -240 -423 -198 -146 30 -246
112 -307 253 -32 76 -33 80 -32 217 1 132 3 145 32 224 17 46 50 107 71 136
53 70 144 148 184 158 128 32 140 33 195 15 29 -9 72 -31 96 -49z m1216 -365
c5 -5 -34 -53 -86 -107 -100 -104 -184 -210 -184 -233 0 -25 19 -15 36 19 18
34 106 136 212 247 l63 65 72 -39 c79 -42 156 -98 200 -144 l28 -30 -69 -21
c-39 -11 -73 -21 -77 -21 -3 0 -31 -11 -61 -25 -30 -14 -57 -25 -60 -25 -10 0
-197 -90 -232 -112 -22 -14 -30 -24 -23 -31 6 -6 21 -3 43 11 54 33 216 112
230 112 7 0 27 7 43 16 32 17 203 74 220 74 16 -1 84 -112 121 -199 45 -103
60 -164 80 -313 14 -112 14 -130 -1 -223 -9 -55 -20 -113 -25 -130 -40 -140
-79 -254 -112 -326 -21 -48 -38 -90 -38 -93 0 -8 -150 -246 -165 -262 -5 -6
-19 -24 -30 -39 -46 -67 -164 -185 -234 -236 -72 -53 -253 -145 -349 -178
-110 -37 -374 -104 -477 -120 -231 -36 -780 -40 -965 -7 -290 53 -271 47 -337
94 -164 114 -409 405 -506 597 -105 210 -130 316 -131 545 -1 172 0 177 31
267 51 147 83 201 196 335 l23 28 74 -15 c41 -8 156 -31 255 -51 99 -20 187
-40 197 -45 24 -13 60 -11 56 3 -4 11 -47 24 -153 46 -171 36 -208 43 -279 57
-43 8 -90 15 -105 15 l-26 1 26 22 c14 12 38 31 53 42 15 11 43 31 60 45 18
14 72 45 119 70 74 38 90 43 105 32 9 -7 31 -19 47 -26 17 -8 74 -44 128 -79
53 -36 100 -60 103 -55 4 6 0 16 -7 22 -16 15 -181 116 -221 136 -16 7 -28 16
-28 20 0 4 39 18 86 30 105 28 259 34 260 10 1 -37 17 -100 25 -106 5 -3 9
-13 9 -22 0 -37 81 -142 143 -185 76 -53 105 -65 198 -81 249 -42 436 91 452
322 2 29 6 55 9 58 4 3 13 -16 22 -43 9 -26 29 -66 45 -88 l28 -40 -43 -40
c-31 -30 -46 -55 -59 -98 -15 -53 -15 -61 0 -107 28 -86 99 -139 196 -147 l58
-6 8 -91 c8 -97 8 -114 5 -243 -3 -105 -4 -106 -144 -93 -177 15 -344 56 -678
165 -357 116 -430 135 -533 135 -201 -1 -325 -114 -343 -313 -17 -192 67 -377
265 -580 185 -190 327 -279 575 -361 178 -59 257 -71 476 -70 168 1 207 4 285
24 221 56 430 172 604 335 127 119 293 348 359 495 52 115 69 160 100 260 6
19 16 77 22 128 16 129 -5 216 -65 276 -31 31 -63 40 -116 33 -62 -8 -101 -35
-221 -153 -130 -127 -247 -224 -333 -277 -63 -38 -194 -97 -217 -97 -10 0 -13
36 -13 167 0 93 -4 194 -9 226 -6 44 -5 57 4 57 23 0 80 51 99 88 28 55 33
102 17 154 l-13 45 48 11 c113 27 168 71 220 177 21 44 24 65 26 180 1 127 2
130 25 137 31 10 268 2 278 -8z m-726 -429 c19 -14 19 -15 -8 -15 -84 0 -127
-93 -71 -154 29 -32 91 -36 125 -8 29 24 38 92 15 116 -20 19 -14 32 10 22 21
-8 55 -83 55 -122 0 -17 -5 -46 -12 -65 -12 -36 -78 -104 -111 -115 -29 -9
-125 5 -141 22 -8 8 -19 14 -23 14 -5 0 -22 14 -38 30 -16 17 -25 30 -21 30 5
0 4 6 -2 13 -18 21 -25 86 -12 102 7 8 10 15 6 15 -13 0 23 56 55 84 47 42
137 58 173 31z m41 -71 c29 -44 -1 -104 -51 -104 -34 0 -76 47 -68 74 18 60
88 77 119 30z m849 -249 c21 -10 41 -32 57 -63 21 -40 24 -60 23 -142 -1 -99
-21 -208 -51 -275 -9 -22 -17 -42 -18 -45 -17 -57 -96 -211 -105 -205 -5 3
-10 24 -10 47 0 174 -146 349 -305 365 -30 3 -55 9 -55 14 0 4 17 21 37 36 21
15 45 35 53 43 87 81 132 124 142 138 18 24 91 80 117 90 39 14 81 13 115 -3z
m-2059 -240 c55 -14 138 -38 185 -54 47 -15 119 -39 160 -51 93 -28 102 -36
53 -44 -209 -37 -478 -213 -555 -363 -54 -104 -71 -163 -72 -239 -1 -41 -2
-74 -3 -74 -13 0 -143 162 -143 178 0 6 -4 12 -9 14 -12 5 -71 114 -71 132 0
9 -4 16 -8 16 -11 0 -32 139 -32 205 0 52 22 140 32 130 3 -3 8 8 11 24 7 35
89 121 115 121 10 0 22 4 28 9 28 28 190 26 309 -4z m1647 -96 c90 -19 201
-99 241 -174 46 -88 65 -230 39 -297 -30 -75 -243 -324 -266 -311 -6 3 -8 3
-4 -2 9 -10 -45 -62 -121 -118 -31 -22 -59 -45 -62 -50 -3 -5 -9 -8 -13 -7 -3
0 -35 -15 -69 -34 -130 -73 -216 -105 -390 -145 -59 -14 -330 -14 -417 -1
-282 44 -532 154 -720 315 -67 58 -82 96 -70 187 23 181 119 317 313 442 142
90 361 153 435 125 61 -24 255 -72 367 -91 153 -25 302 -21 385 12 80 32 127
57 204 112 77 53 74 52 148 37z m166 -1073 c-5 -38 -14 -52 -56 -93 -28 -27
-64 -56 -79 -64 -15 -7 -30 -16 -33 -19 -3 -3 -24 -15 -47 -27 -51 -28 -167
-32 -199 -8 -10 8 -37 20 -59 26 -47 13 -37 21 55 39 36 7 74 19 85 26 11 6
34 15 50 18 37 9 179 76 183 88 2 4 7 6 10 4 4 -2 25 9 47 24 22 16 42 29 44
29 2 1 1 -19 -1 -43z m126 -145 c17 -19 42 -45 56 -58 14 -13 20 -24 15 -24
-18 -2 -405 -4 -405 -2 0 1 32 21 70 44 66 39 150 119 150 142 0 12 61 -43
114 -102z m-2384 15 c84 -24 140 -38 175 -46 22 -4 96 -20 165 -35 69 -15 141
-29 160 -31 222 -26 772 -26 905 0 121 23 123 23 82 -23 -19 -22 -40 -48 -46
-59 -8 -16 -21 -20 -60 -20 -27 -1 -85 -6 -128 -11 -209 -29 -617 -37 -658
-14 -43 24 -194 93 -205 93 -6 0 -8 5 -4 12 5 8 2 9 -11 5 -9 -4 -23 -3 -29 3
-41 33 -310 60 -373 37 -31 -11 -63 23 -63 66 0 44 17 61 44 44 12 -8 32 -17
46 -21z m1790 -81 c23 -13 13 -14 -100 -14 -114 1 -122 2 -95 14 40 19 163 18
195 0z m-275 -72 c-4 -10 -9 -32 -12 -50 -6 -33 -23 -46 -47 -37 -12 5 -9 16
15 55 29 47 59 68 44 32z m-94 -103 c-10 -34 -1 -148 13 -176 16 -30 15 -55
-6 -145 l-11 -47 -49 50 c-29 30 -74 61 -115 81 -63 29 -77 31 -178 32 l-110
1 -85 55 c-47 30 -116 70 -153 89 -37 19 -67 37 -67 40 0 3 116 6 258 7 162 1
296 7 362 16 125 17 146 17 141 -3z m62 -12 c7 -23 -5 -48 -24 -48 -14 0 -19
7 -19 30 0 23 5 30 19 30 11 0 21 -6 24 -12z m-14 -95 c0 -16 -4 -37 -9 -48
-7 -18 -8 -17 -15 10 -4 17 -9 38 -12 48 -3 12 1 17 16 17 16 0 21 -6 20 -27z"/>
<path d="M1635 3827 c-125 -70 -219 -201 -275 -382 -7 -22 -17 -51 -22 -64 -6
-15 -5 -28 1 -34 11 -11 18 3 47 98 10 33 21 65 25 70 3 6 10 21 14 35 12 42
93 157 138 195 81 71 159 96 221 74 41 -15 60 -4 32 17 -32 23 -133 18 -181
-9z"/>
<path d="M2563 3159 c-29 -26 -33 -37 -34 -82 -3 -96 3 -132 27 -174 42 -73
139 -83 164 -17 26 69 1 217 -46 274 -34 39 -69 39 -111 -1z m80 -76 c35 -40
29 -148 -8 -148 -25 0 -45 40 -45 92 0 72 19 92 53 56z m57 -168 c0 -18 -5
-25 -20 -25 -15 0 -20 7 -20 25 0 18 5 25 20 25 15 0 20 -7 20 -25z"/>
<path d="M2138 3091 c-32 -28 -33 -33 -37 -116 -4 -99 14 -162 56 -195 80 -63
175 35 159 164 -17 151 -99 218 -178 147z m87 -57 c35 -14 58 -108 39 -158 -8
-22 -37 -20 -59 4 -23 25 -33 123 -15 145 14 17 13 17 35 9z m-2 -194 c7 -28
-19 -48 -39 -28 -18 18 -8 48 16 48 10 0 20 -9 23 -20z"/>
<path d="M3475 2515 c-121 -15 -174 -30 -158 -46 6 -6 31 -4 74 5 85 20 185
28 354 30 82 0 142 5 145 11 8 15 -286 15 -415 0z"/>
<path d="M1320 2288 c-182 -43 -318 -77 -380 -97 -36 -11 -115 -35 -176 -53
-106 -32 -179 -66 -143 -67 9 -1 36 6 60 15 24 9 73 24 109 34 36 10 118 35
182 54 112 35 335 88 426 102 25 4 41 11 39 18 -6 17 -24 16 -117 -6z"/>
<path d="M4016 4473 c4 -16 10 -30 15 -33 4 -3 9 -16 12 -30 3 -20 5 -18 6 10
1 48 -9 80 -25 80 -11 0 -13 -7 -8 -27z"/>
<path d="M4019 4388 c-1 -2 -3 -218 -5 -480 -2 -309 0 -478 6 -478 6 0 7 -28
3 -75 -3 -45 -2 -75 4 -75 5 0 8 12 7 28 -1 15 2 62 5 105 4 42 4 77 0 77 -3
0 -6 17 -7 38 -1 20 -4 54 -7 74 -4 21 -3 43 2 50 4 7 9 96 9 198 1 102 4 199
8 215 5 26 5 27 -3 5 -7 -19 -9 -9 -9 40 1 59 2 61 9 25 7 -39 7 -39 2 5 -2
25 -6 77 -7 115 -1 39 -4 75 -5 80 -2 6 -2 20 -1 33 1 17 -6 31 -11 20z"/>
<path d="M4146 3153 c9 -38 13 -43 30 -43 9 0 14 11 14 35 0 31 -3 35 -25 35
-23 0 -25 -3 -19 -27z"/>
<path d="M4032 3091 c-10 -6 -10 -10 3 -21 13 -11 15 -9 15 9 0 24 0 24 -18
12z"/>
<path d="M4006 2795 c4 -8 10 -12 15 -9 14 8 10 24 -6 24 -9 0 -12 -6 -9 -15z"/>
<path d="M4010 2736 c0 -31 6 -34 13 -6 3 11 1 23 -4 26 -5 3 -9 -6 -9 -20z"/>
<path d="M4182 2440 c0 -19 2 -27 5 -17 2 9 2 25 0 35 -3 9 -5 1 -5 -18z"/>
<path d="M4025 2094 c5 -50 14 -55 12 -5 -1 22 -4 41 -8 41 -4 0 -6 -16 -4
-36z"/>
<path d="M4013 1930 c-6 -23 -19 -26 -26 -7 -3 7 -6 5 -6 -5 -1 -10 5 -18 12
-18 8 0 19 -10 25 -22 l11 -23 0 22 c1 12 6 25 11 28 15 9 12 32 -6 39 -11 4
-18 -1 -21 -14z"/>
<path d="M4015 1570 c-3 -5 -1 -18 4 -27 9 -16 10 -14 11 10 0 28 -5 34 -15
17z"/>
<path d="M4020 1425 c0 -8 4 -15 9 -15 6 0 12 -15 14 -32 3 -29 4 -28 5 8 2
29 -3 44 -13 48 -9 3 -15 0 -15 -9z"/>
<path d="M4179 1263 c0 -10 -2 -28 -3 -40 -4 -37 10 -51 31 -30 16 15 16 17 1
17 -13 0 -16 7 -13 30 2 16 -1 32 -6 35 -5 4 -9 -2 -10 -12z"/>
<path d="M4020 1170 c0 -5 7 -10 15 -10 8 0 15 5 15 10 0 6 -7 10 -15 10 -8 0
-15 -4 -15 -10z"/>
<path d="M201 1023 c0 -4 4 -17 8 -27 6 -15 9 -16 13 -5 3 8 -1 20 -8 27 -8 7
-14 9 -13 5z"/>
<path d="M4017 994 c-9 -9 6 -54 18 -54 7 0 15 -6 18 -12 7 -20 15 -6 19 32 3
31 0 35 -24 37 -14 1 -28 0 -31 -3z"/>
<path d="M231 838 c-11 -30 9 -35 43 -13 30 20 25 35 -10 35 -16 0 -27 -8 -33
-22z"/>
<path d="M50 713 c0 -10 -3 -29 -7 -43 -6 -25 -6 -25 15 -6 26 23 27 32 7 52
-13 14 -15 13 -15 -3z"/>
<path d="M73 373 c-18 -7 -16 -33 2 -33 8 0 15 9 15 20 0 11 -1 20 -2 19 -2 0
-9 -3 -15 -6z"/>
<path d="M13 3 c9 -2 25 -2 35 0 9 3 1 5 -18 5 -19 0 -27 -2 -17 -5z"/>
<path d="M93 3 c15 -2 39 -2 55 0 15 2 2 4 -28 4 -30 0 -43 -2 -27 -4z"/>
<path d="M213 3 c15 -2 37 -2 50 0 12 2 0 4 -28 4 -27 0 -38 -2 -22 -4z"/>
<path d="M588 3 c17 -2 47 -2 65 0 17 2 3 4 -33 4 -36 0 -50 -2 -32 -4z"/>
<path d="M1158 3 c105 -2 279 -2 385 0 105 1 19 2 -193 2 -212 0 -298 -1 -192
-2z"/>
<path d="M1983 3 c97 -2 257 -2 355 0 97 1 17 2 -178 2 -195 0 -275 -1 -177
-2z"/>
<path d="M2948 3 c200 -2 524 -2 720 0 196 1 33 2 -363 2 -396 0 -557 -1 -357
-2z"/>
<path d="M4238 3 c12 -2 30 -2 40 0 9 3 -1 5 -23 4 -22 0 -30 -2 -17 -4z"/>
<path d="M4348 3 c12 -2 30 -2 40 0 9 3 -1 5 -23 4 -22 0 -30 -2 -17 -4z"/>
</g>
</svg>
